<?xml version="1.0" encoding="utf-8"?><!-- Uploaded to: SVG Repo, www.svgrepo.com, Generator: SVG Repo Mixer Tools -->
<svg fill="#000000" width="800px" height="800px" viewBox="0 0 24 24" id="bag-alt-1" data-name="Flat Color" xmlns="http://www.w3.org/2000/svg" class="icon flat-color"><path id="secondary" d="M7,10A1.25,1.25,0,0,1,6.68,10a1,1,0,0,1-.63-1.27l2-6a1,1,0,1,1,1.9.64l-2,6A1,1,0,0,1,7,10ZM17.32,10A1,1,0,0,0,18,8.68l-2-6a1,1,0,0,0-1.9.64l2,6A1,1,0,0,0,17,10,1.25,1.25,0,0,0,17.32,10Z" style="fill: rgb(44, 169, 188);"></path><path id="primary" d="M21.76,8.35A1,1,0,0,0,21,8H3a1,1,0,0,0-.76.35A1,1,0,0,0,2,9.17L3.87,20.33a2,2,0,0,0,2,1.67h12.3a2,2,0,0,0,2-1.67L22,9.17A1,1,0,0,0,21.76,8.35Z" style="fill: rgb(0, 0, 0);"></path><path id="secondary-2" data-name="secondary" d="M16,18a1,1,0,0,1-1-1V13a1,1,0,0,1,2,0v4A1,1,0,0,1,16,18Zm-4,0a1,1,0,0,1-1-1V13a1,1,0,0,1,2,0v4A1,1,0,0,1,12,18ZM8,18a1,1,0,0,1-1-1V13a1,1,0,0,1,2,0v4A1,1,0,0,1,8,18Z" style="fill: rgb(44, 169, 188);"></path></svg>