<?xml version="1.0" encoding="iso-8859-1"?>
<!-- Uploaded to: SVG Repo, www.svgrepo.com, Generator: SVG Repo Mixer Tools -->
<svg height="800px" width="800px" version="1.1" id="Layer_1" xmlns="http://www.w3.org/2000/svg" xmlns:xlink="http://www.w3.org/1999/xlink" 
	 viewBox="0 0 512 512" xml:space="preserve">
<path style="fill:#B5DDF8;" d="M485.321,303.679h-84.457V180.977c0-65.737,31.379-127.525,84.457-166.306l0,0V303.679z"/>
<path style="fill:#074761;" d="M443.092,497.33L443.092,497.33c-23.322,0-42.229-18.906-42.229-42.229V303.679h84.457v151.421
	C485.321,478.424,466.415,497.33,443.092,497.33z"/>
<path d="M491.964,1.59c-4.923-2.5-10.837-2.023-15.297,1.235c-56.652,41.391-90.473,107.989-90.473,178.151v122.702v151.421
	c0,31.374,25.525,56.899,56.899,56.899s56.9-25.525,56.9-56.899V303.679V14.67C499.992,9.147,496.889,4.092,491.964,1.59z
	 M415.535,180.977c0-50.472,20.185-98.816,55.116-134.316v242.348h-55.116V180.977z M470.651,455.101
	c0,15.196-12.363,27.559-27.559,27.559c-15.196,0-27.559-12.363-27.559-27.559V318.35h55.116v136.751H470.651z"/>
<path d="M206.706,29.341c-0.968,0-1.922-0.088-2.875-0.279c-0.939-0.191-1.863-0.484-2.743-0.851s-1.731-0.822-2.523-1.35
	c-0.807-0.528-1.555-1.144-2.23-1.819c-0.69-0.675-1.291-1.423-1.834-2.23c-0.528-0.792-0.983-1.643-1.35-2.538
	c-0.367-0.88-0.646-1.804-0.836-2.743c-0.191-0.939-0.279-1.907-0.279-2.861c0-0.954,0.088-1.922,0.279-2.861
	c0.191-0.939,0.469-1.863,0.836-2.743c0.367-0.895,0.822-1.746,1.35-2.538c0.543-0.807,1.144-1.555,1.834-2.23
	c0.675-0.675,1.423-1.291,2.23-1.819c0.792-0.528,1.643-0.983,2.523-1.35s1.804-0.646,2.743-0.836c1.892-0.381,3.844-0.381,5.736,0
	c0.939,0.191,1.863,0.469,2.743,0.836s1.746,0.822,2.538,1.35c0.807,0.528,1.555,1.144,2.23,1.819
	c0.675,0.675,1.291,1.423,1.819,2.23c0.528,0.792,0.983,1.643,1.35,2.538c0.367,0.88,0.646,1.804,0.836,2.743
	s0.293,1.907,0.293,2.861c0,0.954-0.103,1.922-0.293,2.861c-0.191,0.939-0.469,1.863-0.836,2.743
	c-0.367,0.895-0.822,1.746-1.35,2.538c-0.528,0.807-1.144,1.555-1.819,2.23c-0.675,0.675-1.423,1.291-2.23,1.819
	c-0.792,0.528-1.658,0.983-2.538,1.35s-1.804,0.66-2.743,0.851C208.628,29.253,207.66,29.341,206.706,29.341z"/>
<path d="M330.76,29.341c-0.954,0-1.922-0.103-2.861-0.293c-0.939-0.176-1.863-0.469-2.743-0.836
	c-0.895-0.367-1.746-0.822-2.538-1.35c-0.807-0.528-1.555-1.144-2.23-1.819c-0.675-0.675-1.291-1.423-1.819-2.23
	c-0.528-0.792-0.983-1.643-1.35-2.538c-0.367-0.88-0.66-1.804-0.836-2.743c-0.191-0.939-0.293-1.907-0.293-2.861
	c0-3.858,1.57-7.643,4.298-10.372c0.675-0.675,1.423-1.291,2.23-1.819c0.792-0.528,1.643-0.983,2.538-1.35
	c0.88-0.367,1.804-0.66,2.743-0.836c4.768-0.968,9.829,0.601,13.233,4.005c2.729,2.729,4.298,6.514,4.298,10.372
	c0,0.954-0.103,1.922-0.293,2.861c-0.176,0.939-0.469,1.863-0.836,2.743c-0.367,0.895-0.822,1.746-1.35,2.538
	c-0.528,0.807-1.144,1.555-1.819,2.23C338.403,27.771,334.618,29.341,330.76,29.341z"/>
<path style="fill:#B5DDF8;" d="M268.937,207.772L268.937,207.772c-34.371,0-62.237-27.864-62.237-62.237v-40.457h124.472v40.457
	C331.174,179.907,303.309,207.772,268.937,207.772z"/>
<path style="fill:#E7AD7C;" d="M268.937,497.33L268.937,497.33c-23.322,0-42.229-18.906-42.229-42.229V305.146h84.457v149.954
	C311.166,478.424,292.259,497.33,268.937,497.33z"/>
<path d="M345.844,145.536v-40.458c0-1.174-0.153-2.311-0.414-3.405v-42.99c0-8.103-6.568-14.67-14.671-14.67
	s-14.67,6.568-14.67,14.67v31.725h-32.689V17.054c0-8.103-6.568-14.67-14.671-14.67s-14.67,6.568-14.67,14.67v73.352h-32.689V58.682
	c0-8.103-6.568-14.67-14.67-14.67c-8.103,0-14.67,6.568-14.67,14.67v46.395v14.854v25.604c0,37.389,26.825,68.617,62.235,75.486
	v69.454h-27.559c-8.103,0-14.67,6.568-14.67,14.671v149.954c0,31.374,25.525,56.899,56.899,56.899s56.9-25.525,56.9-56.899V305.146
	c0-8.103-6.568-14.671-14.671-14.671h-27.559v-69.454C319.019,214.152,345.844,182.925,345.844,145.536z M296.496,455.101
	c0,15.196-12.363,27.559-27.559,27.559c-15.196,0-27.559-12.363-27.559-27.559V319.817h55.116v135.284H296.496z M221.371,145.536
	v-25.604v-0.183h45.154c0.722,0.109,1.454,0.183,2.205,0.183c0.751,0,1.485-0.075,2.205-0.183h45.567v25.788
	c0,26.228-21.338,47.565-47.566,47.565S221.371,171.764,221.371,145.536z"/>
<path style="fill:#B5DDF8;" d="M88.914,207.772L88.914,207.772c-34.371,0-62.237-27.864-62.237-62.237V76.907
	c0-34.373,27.864-62.237,62.237-62.237l0,0c34.371,0,62.237,27.864,62.237,62.237v68.629
	C151.149,179.907,123.286,207.772,88.914,207.772z"/>
<path style="fill:#E7AD7C;" d="M88.914,497.33L88.914,497.33c-23.322,0-42.229-18.906-42.229-42.229V305.146h84.457v149.954
	C131.142,478.424,112.236,497.33,88.914,497.33z"/>
<path d="M165.82,145.536v-68.63C165.82,34.501,131.321,0,88.913,0C46.508,0,12.007,34.501,12.007,76.906v68.63
	c0,37.389,26.825,68.615,62.235,75.486v69.454H46.685c-8.103,0-14.67,6.568-14.67,14.671v149.954
	C32.015,486.475,57.54,512,88.914,512s56.899-25.525,56.899-56.899V305.146c0-8.103-6.568-14.671-14.67-14.671h-27.56v-69.454
	C138.995,214.152,165.82,182.925,165.82,145.536z M116.473,455.101c0,15.196-12.363,27.559-27.559,27.559l0,0
	c-15.196,0-27.559-12.363-27.559-27.559V319.817h55.117V455.101z M41.348,145.536v-68.63c0-26.228,21.338-47.565,47.566-47.565
	s47.565,21.337,47.565,47.565v68.63c0,26.228-21.337,47.565-47.565,47.565l0,0C62.685,193.1,41.348,171.764,41.348,145.536z"/>
</svg>